<svg width="24" height="24" viewBox="0 0 24 24" fill="none" xmlns="http://www.w3.org/2000/svg">
<path d="M17.233 5.75489C17.4673 5.52062 17.8463 5.52071 18.0806 5.75489C18.315 5.98921 18.315 6.36823 18.0806 6.60255L12.6832 12L18.0806 17.3975C18.315 17.6318 18.315 18.0108 18.0806 18.2451C17.8463 18.4794 17.4673 18.4794 17.233 18.2451L11.8355 12.8477L6.76717 17.916C6.53285 18.1503 6.15382 18.1503 5.91951 17.916C5.68533 17.6817 5.68524 17.3026 5.91951 17.0684L10.9879 12L5.91951 6.93165C5.6852 6.69733 5.6852 6.31831 5.91951 6.08399C6.15382 5.84968 6.53285 5.84968 6.76717 6.08399L11.8355 11.1524L17.233 5.75489Z" fill="#F1F1F1"/>
</svg>
