<svg width="24" height="24" viewBox="0 0 24 24" fill="none" xmlns="http://www.w3.org/2000/svg">
<path d="M20.4004 12C20.4004 9.77218 19.5148 7.63585 17.9395 6.06055C16.3644 4.48547 14.2284 3.59987 12.001 3.59961C9.64372 3.60881 7.3801 4.52678 5.68359 6.16309L5.68457 6.16406L4.44727 7.40039H8C8.33137 7.40039 8.59961 7.66863 8.59961 8C8.59961 8.33137 8.33137 8.59961 8 8.59961H3C2.66863 8.59961 2.40039 8.33137 2.40039 8V3C2.40039 2.66863 2.66863 2.40039 3 2.40039C3.33137 2.40039 3.59961 2.66863 3.59961 3V6.55176L4.84277 5.30859L5.20996 4.96973C7.08367 3.32554 9.49407 2.40981 11.998 2.40039H12C14.5461 2.40039 16.9877 3.41157 18.7881 5.21191C20.5884 7.01226 21.5996 9.45392 21.5996 12C21.5996 12.3314 21.3314 12.5996 21 12.5996C20.6686 12.5996 20.4004 12.3314 20.4004 12ZM21.5996 21C21.5996 21.3314 21.3314 21.5996 21 21.5996C20.6686 21.5996 20.4004 21.3314 20.4004 21V17.4473L19.1572 18.6914C17.2369 20.5478 14.6728 21.5896 12.002 21.5996H12C9.45392 21.5996 7.01226 20.5884 5.21191 18.7881C3.41157 16.9877 2.40039 14.5461 2.40039 12C2.40039 11.6686 2.66863 11.4004 3 11.4004C3.33137 11.4004 3.59961 11.6686 3.59961 12C3.59961 14.2278 4.48524 16.3641 6.06055 17.9395C7.63539 19.5143 9.77093 20.3989 11.998 20.3994C14.3556 20.3905 16.6187 19.4725 18.3154 17.8359L19.5527 16.5996H16C15.6686 16.5996 15.4004 16.3314 15.4004 16C15.4004 15.6686 15.6686 15.4004 16 15.4004H21C21.3314 15.4004 21.5996 15.6686 21.5996 16V21Z" fill="#F1F1F1"/>
<path d="M12.0234 7.12173C12.2016 7.00083 12.4288 6.97592 12.6289 7.05532C13.1623 7.26735 13.8695 7.7516 14.3662 8.53774C14.8765 9.34545 15.1447 10.4426 14.8154 11.8122C14.7314 12.161 14.3802 12.3755 14.0312 12.2917C13.6824 12.2076 13.4669 11.8564 13.5508 11.5075C13.7983 10.4774 13.589 9.74097 13.2676 9.23208C13.1972 9.12068 13.1192 9.01911 13.0391 8.92642V14.0563C13.0391 14.0627 13.04 14.0694 13.04 14.0758C13.04 14.082 13.0391 14.0882 13.0391 14.0944V14.1999C13.0391 14.2557 13.0299 14.3093 13.0166 14.361C12.8779 15.3301 12.0475 16.0757 11.04 16.0758C9.93556 16.0758 9.04018 15.1803 9.04004 14.0758C9.04004 12.9713 9.93547 12.0758 11.04 12.0758C11.286 12.0759 11.5206 12.1225 11.7383 12.2038V7.65981C11.7383 7.44451 11.8454 7.24272 12.0234 7.12173Z" fill="#DDFF57"/>
</svg>
