<svg width="24" height="24" viewBox="0 0 24 24" fill="none" xmlns="http://www.w3.org/2000/svg">
<path d="M11.9951 7.20508C12.4368 7.20514 12.7949 7.56315 12.7949 8.00488V11.2002H16C16.4418 11.2002 16.7998 11.5582 16.7998 12C16.7998 12.4418 16.4418 12.7998 16 12.7998H12.7949V16.0049C12.7949 16.4467 12.4369 16.8046 11.9951 16.8047C11.5533 16.8047 11.1953 16.4467 11.1953 16.0049V12.7998H8C7.55817 12.7998 7.2002 12.4418 7.2002 12C7.2002 11.5582 7.55817 11.2002 8 11.2002H11.1953V8.00488C11.1954 7.56311 11.5533 7.20508 11.9951 7.20508Z" fill="#DDFF57"/>
<rect x="3" y="3" width="18" height="18" rx="4" fill="#F1F1F1" fill-opacity="0.1"/>
<rect x="3.6" y="3.6" width="16.8" height="16.8" rx="3.4" stroke="#F1F1F1" stroke-opacity="0.4" stroke-width="1.2"/>
</svg>
